<svg xmlns="http://www.w3.org/2000/svg" width="7" height="12">
    <path fill="#262626" fill-rule="evenodd" d="M1.333 11.687c-.149 0-.299-.061-.411-.183-.103-.114-.155-.259-.155-.404 0-.157.059-.311.177-.427l4.547-4.475L.944 1.724c-.118-.115-.177-.271-.177-.427 0-.145.052-.29.155-.404.216-.236.574-.246.801-.023L6.7 5.768l.014.014c.048.049.087.107.113.169h.001c.034.078.052.161.052.244v.003c0 .086-.018.171-.053.249l-.001.001v.002c-.027.059-.064.115-.111.164l-.015.014-4.977 4.899c-.109.108-.25.16-.39.16z"/>
</svg>
