<svg xmlns="http://www.w3.org/2000/svg" width="21" height="21">
    <path fill="#FFF" fill-rule="evenodd" d="M17.883 12.75c-1.187 0-2.146-.96-2.146-2.147 0-1.186.959-2.145 2.146-2.145 1.187 0 2.146.959 2.146 2.145 0 1.187-.959 2.147-2.146 2.147zm0-7.869c-1.187 0-2.146-.96-2.146-2.146 0-1.187.959-2.146 2.146-2.146 1.187 0 2.146.959 2.146 2.146 0 1.186-.959 2.146-2.146 2.146zm-7.869 15.737c-1.186 0-2.146-.959-2.146-2.146 0-1.187.96-2.146 2.146-2.146 1.187 0 2.146.959 2.146 2.146 0 1.187-.959 2.146-2.146 2.146zm0-7.868c-1.186 0-2.146-.96-2.146-2.147 0-1.186.96-2.145 2.146-2.145 1.187 0 2.146.959 2.146 2.145 0 1.187-.959 2.147-2.146 2.147zm0-7.869c-1.186 0-2.146-.96-2.146-2.146 0-1.187.96-2.146 2.146-2.146 1.187 0 2.146.959 2.146 2.146 0 1.186-.959 2.146-2.146 2.146zM2.146 20.618C.959 20.618 0 19.659 0 18.472c0-1.187.959-2.146 2.146-2.146 1.187 0 2.146.959 2.146 2.146 0 1.187-.959 2.146-2.146 2.146zm0-7.868C.959 12.75 0 11.79 0 10.603c0-1.186.959-2.145 2.146-2.145 1.187 0 2.146.959 2.146 2.145 0 1.187-.959 2.147-2.146 2.147zm0-7.869C.959 4.881 0 3.921 0 2.735 0 1.548.959.589 2.146.589c1.187 0 2.146.959 2.146 2.146 0 1.186-.959 2.146-2.146 2.146zm15.737 11.445c1.187 0 2.146.959 2.146 2.146 0 1.187-.959 2.146-2.146 2.146-1.187 0-2.146-.959-2.146-2.146 0-1.187.959-2.146 2.146-2.146z"/>
</svg>
