<svg xmlns="http://www.w3.org/2000/svg"
 xmlns:xlink="http://www.w3.org/1999/xlink"
 width="11px" height="18px"  viewBox="0 0 11 18">
<path fill-rule="evenodd"  fill="#a1a1a1"
 d="M7.1898193,1.1246338 C7.602783,1.1246338 8.018066,1.1469727 8.429565,1.1654053 C8.697876,1.1763916 8.966553,1.2148438 9.21875,1.2421875 C9.21875,1.2421875 9.199585,3.7270508 9.199585,3.7270508 C9.199585,3.7270508 9.002075,3.7270508 9.002075,3.7270508 C8.729736,3.7270508 8.456909,3.7235107 8.184204,3.7235107 C7.9798584,3.7235107 7.7752686,3.7254639 7.5706787,3.7324219 C6.9121094,3.7543945 6.427368,4.001465 6.394043,4.8240967 C6.3728027,5.416504 6.358032,6.7244873 6.3571777,6.793335 C6.3913574,6.793335 7.0421143,6.79541 7.6966553,6.79541 C8.024292,6.79541 8.34436,6.795166 8.567505,6.793335 C8.567505,6.793335 9.099487,6.793335 9.099487,6.793335 C8.966064,7.7478027 8.843872,8.663452 8.710693,9.585327 C8.710693,9.585327 6.357422,9.585327 6.357422,9.585327 C6.357422,9.585327 6.3044434,16.556519 6.3044434,16.556519 C6.3044434,16.556519 3.4139404,16.556519 3.4139404,16.556519 C3.4139404,16.556519 3.467163,9.574341 3.467163,9.574341 C3.467163,9.574341 1.1030273,9.574341 1.1030273,9.574341 C1.1030273,9.574341 1.1240234,6.798462 1.1240234,6.798462 C1.1240234,6.798462 3.4992676,6.798462 3.4992676,6.798462 C3.4992676,6.798462 3.5007324,6.589966 3.5007324,6.589966 C3.505249,6.0307617 3.498413,5.4710693 3.519165,4.911865 C3.5270996,4.560913 3.5465088,4.1988525 3.6096191,3.847412 C3.7696533,2.9978027 4.1640625,2.2843018 4.8758545,1.774292 C5.4990234,1.3300781 6.208008,1.1434326 6.959717,1.1269531 C7.036499,1.1253662 7.113037,1.1246338 7.1898193,1.1246338 Z"/>
</svg>