<svg xmlns="http://www.w3.org/2000/svg"
 xmlns:xlink="http://www.w3.org/1999/xlink"
 width="16px" height="16px"  viewBox="0 0 16 16">
<path fill-rule="evenodd"  fill="#436372"
 d="M14.38208,14.166016 C14.38208,14.166016 1.5491943,14.166016 1.5491943,14.166016 C1.3129883,14.166016 1.12146,13.981934 1.12146,13.754639 C1.12146,10.125732 4.1917725,7.1730957 7.9656982,7.1730957 C11.739502,7.1730957 14.809814,10.125732 14.809814,13.754639 C14.809814,13.981934 14.618286,14.166016 14.38208,14.166016 ZM1.9921265,13.343506 C1.9921265,13.343506 13.939148,13.343506 13.939148,13.343506 C13.718994,10.359375 11.123901,7.9958496 7.9656982,7.9958496 C4.807373,7.9958496 2.2122803,10.359375 1.9921265,13.343506 ZM7.9656982,7.9958496 C5.9608154,7.9958496 4.329712,6.42749 4.329712,4.4992676 C4.329712,2.571289 5.9608154,1.0029297 7.9656982,1.0029297 C9.970459,1.0029297 11.601624,2.571289 11.601624,4.4992676 C11.601624,6.42749 9.970459,7.9958496 7.9656982,7.9958496 ZM7.9656982,1.8256836 C6.432556,1.8256836 5.1852417,3.0251465 5.1852417,4.4992676 C5.1852417,5.973633 6.432556,7.1730957 7.9656982,7.1730957 C9.498779,7.1730957 10.746033,5.973633 10.746033,4.4992676 C10.746033,3.0251465 9.498779,1.8256836 7.9656982,1.8256836 Z"/>
</svg>