<svg xmlns="http://www.w3.org/2000/svg"
 xmlns:xlink="http://www.w3.org/1999/xlink"
 width="21px" height="14px"  viewBox="0 0 21 14">
<path fill-rule="evenodd"  fill="#a1a1a1"
 d="M7.267456,12.726929 C6.149048,12.661377 5.1314697,12.309937 4.231079,11.646118 C3.069458,10.790894 2.3376465,9.64978 2.0303955,8.23999 C1.9188232,7.729492 1.8792725,7.2199707 1.9216309,6.70459 C2.0019531,5.4865723 2.427002,4.3950195 3.2080078,3.4464111 C4.0163574,2.453003 5.046509,1.8059082 6.2781982,1.4938965 C6.5906982,1.4111328 6.9039307,1.3616943 7.222412,1.345459 C7.4034424,1.3398438 7.584839,1.3287354 7.765747,1.3287354 C8.731079,1.3398438 9.634399,1.5814209 10.464233,2.069336 C11.02124,2.3875732 11.337036,2.7109375 11.473145,2.8099365 C10.904297,3.3693848 10.357056,3.9179688 9.798584,4.4663086 C9.3845215,4.109497 8.92627,3.7806396 8.131714,3.6600342 C7.967285,3.6364746 7.8044434,3.6242676 7.6451416,3.6242676 C6.0507812,3.6242676 4.71521,4.7770996 4.359741,6.2874756 C4.2749023,6.627075 4.2507324,6.9731445 4.2802734,7.3187256 C4.4018555,8.7229 5.341919,9.874756 6.61145,10.286011 C6.9348145,10.388062 7.2700195,10.436035 7.6071777,10.436035 C7.6862793,10.436035 7.7648926,10.434204 7.8443604,10.429077 C8.442505,10.390381 9.002808,10.231445 9.510254,9.896606 C10.364868,9.315308 10.640747,8.404907 10.6427,8.1796875 C10.6427,8.1796875 7.5875244,8.1796875 7.5875244,8.1796875 C7.5878906,8.104736 7.598999,6.6766357 7.604126,5.9801025 C7.604126,5.9801025 7.6101074,5.887207 7.6101074,5.887207 C7.6101074,5.887207 12.974365,5.887207 12.974365,5.887207 C13.263184,7.5601807 13.003296,9.320435 11.961426,10.697144 C11.241455,11.646118 10.282349,12.244019 9.13916,12.540527 C8.631836,12.671509 8.1171875,12.73584 7.598999,12.73584 C7.4888916,12.73584 7.378174,12.732544 7.267456,12.726929 ZM17.856201,9.507324 C17.856201,9.507324 16.408203,9.507324 16.408203,9.507324 C16.408203,9.507324 16.353271,9.507324 16.353271,9.507324 C16.353271,9.507324 16.353638,9.452148 16.353638,9.452148 C16.353638,9.452148 16.368408,7.52124 16.368408,7.52124 C16.368408,7.52124 14.437744,7.52124 14.437744,7.52124 C14.437744,7.52124 14.377319,7.52124 14.377319,7.52124 C14.377319,7.52124 14.377686,7.4611816 14.377686,7.4611816 C14.377686,7.4611816 14.388794,6.0186768 14.388794,6.0186768 C14.388794,6.0186768 14.389282,5.963501 14.389282,5.963501 C14.389282,5.963501 14.449707,5.963501 14.449707,5.963501 C14.449707,5.963501 16.380371,5.963501 16.380371,5.963501 C16.380371,5.963501 16.394775,4.027466 16.394775,4.027466 C16.394775,4.027466 16.395386,3.9726562 16.395386,3.9726562 C16.395386,3.9726562 16.450073,3.9726562 16.450073,3.9726562 C16.450073,3.9726562 17.898315,3.9726562 17.898315,3.9726562 C17.898315,3.9726562 17.953003,3.9726562 17.953003,3.9726562 C17.953003,3.9726562 17.952637,4.027466 17.952637,4.027466 C17.952637,4.027466 17.937866,5.963501 17.937866,5.963501 C17.937866,5.963501 19.86853,5.963501 19.86853,5.963501 C19.86853,5.963501 19.928955,5.963501 19.928955,5.963501 C19.928955,5.963501 19.928589,6.0186768 19.928589,6.0186768 C19.928589,6.0186768 19.91748,7.4611816 19.91748,7.4611816 C19.91748,7.4611816 19.916992,7.52124 19.916992,7.52124 C19.916992,7.52124 19.85669,7.52124 19.85669,7.52124 C19.85669,7.52124 17.92627,7.52124 17.92627,7.52124 C17.92627,7.52124 17.911499,9.452148 17.911499,9.452148 C17.911499,9.452148 17.911133,9.507324 17.911133,9.507324 C17.911133,9.507324 17.856201,9.507324 17.856201,9.507324 Z"/>
</svg>