<svg xmlns="http://www.w3.org/2000/svg"
 xmlns:xlink="http://www.w3.org/1999/xlink"
 width="17px" height="16px"  viewBox="0 0 17 16">
<path fill-rule="evenodd"  fill="#a1a1a1"
 d="M4.339966,14.461304 C2.7908936,14.060913 1.8665771,13.051514 1.6206055,11.483154 C1.4371338,10.331055 1.4177246,4.977539 1.7502441,3.8148193 C2.18396,2.3009033 3.1950684,1.4119873 4.7266846,1.1599121 C5.4211426,1.0463867 6.7788086,1.0061035 8.150024,1.0061035 C9.425049,1.0061035 10.710815,1.0408936 11.484863,1.0831299 C12.422974,1.1328125 13.281494,1.434082 13.978394,2.1035156 C14.642944,2.739502 14.982544,3.53479 15.068481,4.4345703 C15.170166,5.5093994 15.236084,10.588989 14.919922,11.779053 C14.496338,13.337036 13.47998,14.258057 11.904053,14.510864 C11.314697,14.605713 9.724121,14.66272 8.135742,14.66272 C6.5098877,14.66272 4.8861084,14.602905 4.339966,14.461304 ZM5.0687256,2.3442383 C3.8778076,2.4815674 3.0766602,3.2167969 2.8864746,4.4016113 C2.690796,5.6573486 2.6929932,10.3532715 2.8393555,11.296875 C2.9909668,12.278198 3.5456543,12.952881 4.5251465,13.226807 C5.05542,13.37561 6.6429443,13.428955 8.199097,13.428955 C9.631592,13.428955 11.038696,13.383911 11.567383,13.325684 C12.769775,13.194336 13.564941,12.453735 13.754883,11.258301 C13.950806,10.056885 13.951416,5.6743164 13.839233,4.5498047 C13.716675,3.3482666 12.982178,2.558838 11.793701,2.3720703 C11.2052,2.283081 9.787842,2.243164 8.378296,2.243164 C7.0183105,2.243164 5.6644287,2.2799072 5.0687256,2.3442383 ZM4.8183594,7.835327 C4.83374,5.899048 6.4143066,4.3302 8.350098,4.3356934 C10.281128,4.3356934 11.837769,5.904785 11.822998,7.8408203 C11.808472,9.771362 10.227539,11.34021 8.291504,11.34021 C6.3552246,11.34021 4.803833,9.771362 4.8183594,7.835327 ZM6.0529785,7.8134766 C6.032715,9.064209 7.0284424,10.0896 8.278687,10.100464 C8.278687,10.100464 8.299194,10.100708 8.299194,10.100708 C9.540527,10.100708 10.562866,9.100952 10.583496,7.8573 C10.60376,6.60083 9.607666,5.5808105 8.357178,5.569702 C8.357178,5.569702 8.337036,5.569702 8.337036,5.569702 C7.095581,5.569702 6.0734863,6.569458 6.0529785,7.8134766 ZM11.170776,4.1988525 C11.174438,3.7470703 11.5390625,3.3817139 11.989746,3.3817139 C11.989746,3.3817139 11.99939,3.3817139 11.99939,3.3817139 C12.449585,3.3817139 12.814209,3.7489014 12.810547,4.2042236 C12.807129,4.6539307 12.43689,5.0213623 11.981812,5.0213623 C11.526733,5.0162354 11.167358,4.6483154 11.170776,4.1988525 Z"/>
</svg>