<?xml version="1.0" encoding="UTF-8"?>
<svg xmlns="http://www.w3.org/2000/svg" xmlns:xlink="http://www.w3.org/1999/xlink" width="10pt" height="11pt" viewBox="0 0 10 11" version="1.1">
<g id="surface1">
<path style=" stroke:none;fill-rule:nonzero;fill:#526278;fill-opacity:1;" d="M 4.199219 1.398438 L 4.691406 0.933594 C 4.894531 0.738281 5.226562 0.738281 5.433594 0.933594 L 9.71875 4.992188 C 9.925781 5.1875 9.925781 5.503906 9.71875 5.699219 L 5.433594 9.761719 C 5.226562 9.957031 4.890625 9.957031 4.691406 9.761719 L 4.199219 9.296875 C 3.988281 9.097656 3.996094 8.777344 4.207031 8.578125 L 6.863281 6.183594 L 0.527344 6.183594 C 0.238281 6.183594 0 5.957031 0 5.679688 L 0 5.011719 C 0 4.734375 0.238281 4.511719 0.527344 4.511719 L 6.863281 4.511719 L 4.207031 2.117188 C 3.992188 1.917969 3.984375 1.597656 4.199219 1.398438 Z M 4.199219 1.398438 "/>
</g>
</svg>
