<svg xmlns="http://www.w3.org/2000/svg"
 xmlns:xlink="http://www.w3.org/1999/xlink"
 width="17px" height="15px"  viewBox="0 0 17 15">
<path fill-rule="evenodd"  fill="#a1a1a1"
 d="M15.690063,3.2770996 C15.584839,3.4360352 15.479492,3.5839844 15.357666,3.7271729 C15.047119,4.110718 14.688232,4.45105 14.285645,4.741577 C14.285645,4.741577 14.23584,4.834839 14.23584,4.834839 C14.248901,5.2681885 14.229004,5.70166 14.170898,6.135132 C14.053955,7.045288 13.789551,7.9173584 13.399414,8.745728 C12.987305,9.601318 12.459961,10.374634 11.796631,11.054932 C10.668823,12.21228 9.319214,12.95874 7.748047,13.303833 C7.2092285,13.419434 6.6657715,13.479736 6.1121826,13.496094 C6.0234375,13.498413 5.935425,13.499756 5.847534,13.499756 C4.2591553,13.499756 2.7872314,13.076294 1.4313965,12.234131 C1.4313965,12.234131 1.3605957,12.190552 1.3605957,12.190552 C1.5927734,12.215088 1.8225098,12.227539 2.0496826,12.227539 C2.824585,12.227539 3.5704346,12.082642 4.298462,11.789917 C4.7993164,11.581665 5.2617188,11.318115 5.697754,10.973022 C4.178955,10.923462 3.2329102,9.826294 2.9874268,8.937744 C3.1694336,8.973145 3.3510742,8.990234 3.5317383,8.990234 C3.7694092,8.990234 4.0064697,8.960815 4.2437744,8.904785 C4.2437744,8.904785 4.287842,8.882935 4.287842,8.882935 C3.4609375,8.691162 2.8277588,8.251831 2.394287,7.5393066 C2.1019287,7.0672607 1.9691162,6.5463867 1.9731445,5.981079 C2.3883057,6.2008057 2.8154297,6.321411 3.276245,6.3325195 C2.6591797,5.8881836 2.2470703,5.3007812 2.0826416,4.5549316 C1.9182129,3.809204 2.0334473,3.1013184 2.416748,2.432129 C3.987915,4.3027344 5.987793,5.328491 8.43811,5.498413 C8.422485,5.3780518 8.4071045,5.279297 8.391113,5.1749268 C8.314087,4.484131 8.461792,3.841919 8.839111,3.26062 C9.310913,2.525879 9.978394,2.0703125 10.834961,1.9332275 C11.01709,1.9025879 11.19519,1.8879395 11.368286,1.8879395 C12.135498,1.8879395 12.813965,2.182495 13.395996,2.7506104 C13.432373,2.7833252 13.462891,2.8007812 13.50354,2.8007812 C13.517212,2.8007812 13.5321045,2.798706 13.548828,2.7941895 C14.15332,2.668213 14.725586,2.4490967 15.259766,2.1417236 C15.259766,2.1417236 15.298462,2.119751 15.298462,2.119751 C15.084839,2.8000488 14.658447,3.326294 14.052246,3.7159424 C14.623169,3.6558838 15.161865,3.501831 15.690063,3.2770996 Z"/>
</svg>