<svg xmlns="http://www.w3.org/2000/svg" width="22" height="20">
    <path fill="#FFF" fill-rule="evenodd" d="M21.934 5.216l-3.717 8.56c-.135.299-.42.488-.746.488H7.257c-.366 0-.692-.244-.787-.597L3.147 1.629H.814C.366 1.629 0 1.262 0 .814c0-.449.366-.816.814-.816h2.943c.367 0 .692.245.787.598l3.323 12.038h9.062l3.011-6.929H9.902c-.448 0-.814-.367-.814-.816 0-.449.366-.815.814-.815h11.286c.271 0 .529.137.678.366.149.233.177.517.068.776zM6.484 16.303c1.017 0 1.845.828 1.845 1.847 0 1.019-.828 1.849-1.845 1.849-1.018 0-1.845-.83-1.845-1.849 0-1.019.827-1.847 1.845-1.847zm11.408 0c1.017-.068 1.899.706 1.967 1.712.027.502-.122.979-.448 1.345-.326.38-.773.598-1.262.639h-.135c-.963 0-1.764-.761-1.831-1.726-.068-1.006.691-1.902 1.709-1.97z"/>
</svg>
