<svg xmlns="http://www.w3.org/2000/svg" width="20" height="20">
    <path fill="#A3BBC8" fill-rule="evenodd" d="M19.45 19.448c-.731.733-1.919.733-2.651 0l-4.588-4.588c1.063-.682 1.967-1.588 2.651-2.651l4.588 4.589c.733.732.733 1.92 0 2.65zM7.5 14.999c-4.142 0-7.5-3.359-7.5-7.5C0 3.357 3.358-.002 7.5-.002c4.142 0 7.5 3.359 7.5 7.501 0 4.141-3.358 7.5-7.5 7.5zm0-13.126c-3.102 0-5.625 2.524-5.625 5.626 0 3.102 2.523 5.624 5.625 5.624s5.625-2.522 5.625-5.624S10.602 1.873 7.5 1.873zM4.375 7.499h-1.25c0-2.412 1.963-4.376 4.375-4.376v1.251c-1.723 0-3.125 1.402-3.125 3.125z"/>
</svg>
